<svg
  width="32"
  height="32"
  viewBox="0 0 32 32"
  fill="none"
  xmlns="http://www.w3.org/2000/svg"
>
  <rect width="32" height="32" rx="8" fill="black" />
  <path
    d="M21.3267 11.734C20.4695 10.8903 19.3774 10.3157 18.1885 10.0829C16.9995 9.85015 15.7672 9.96962 14.6472 10.4262C13.5273 10.8829 12.57 11.6561 11.8965 12.6482C11.223 13.6404 10.8636 14.8068 10.8636 16C10.8636 17.1932 11.223 18.3596 11.8965 19.3518C12.57 20.3439 13.5273 21.1171 14.6472 21.5738C15.7672 22.0304 16.9995 22.1499 18.1885 21.9171C19.3774 21.6843 20.4695 21.1097 21.3267 20.266L19.5931 18.5596C19.0788 19.0658 18.4235 19.4106 17.7102 19.5502C16.9968 19.6899 16.2574 19.6182 15.5854 19.3443C14.9134 19.0703 14.3391 18.6063 13.935 18.0111C13.5309 17.4158 13.3152 16.7159 13.3152 16C13.3152 15.2841 13.5309 14.5842 13.935 13.9889C14.3391 13.3937 14.9134 12.9297 15.5854 12.6557C16.2574 12.3818 16.9968 12.3101 17.7102 12.4498C18.4235 12.5894 19.0788 12.9342 19.5931 13.4404L21.3267 11.734Z"
    fill="white"
  />
  <path
    d="M23.5002 9.59465C22.2131 8.32779 20.5733 7.46504 18.7881 7.11552C17.0029 6.76599 15.1525 6.94538 13.4709 7.631C11.7893 8.31662 10.352 9.47768 9.34074 10.9673C8.32951 12.457 7.78976 14.2084 7.78976 16C7.78976 17.7916 8.32951 19.543 9.34074 21.0327C10.352 22.5223 11.7893 23.6834 13.4709 24.369C15.1525 25.0546 17.0029 25.234 18.7881 24.8845C20.5733 24.535 22.2131 23.6722 23.5002 22.4054L22.1987 21.1243C21.169 22.1378 19.8572 22.828 18.429 23.1076C17.0009 23.3872 15.5205 23.2437 14.1753 22.6952C12.83 22.1467 11.6801 21.2179 10.8711 20.0261C10.0621 18.8344 9.63035 17.4333 9.63035 16C9.63035 14.5667 10.0621 13.1656 10.8711 11.9739C11.6801 10.7821 12.83 9.8533 14.1753 9.3048C15.5205 8.75631 17.0009 8.61279 18.429 8.89242C19.8572 9.17204 21.169 9.86223 22.1987 10.8757L23.5002 9.59465Z"
    fill="white"
  />
  <path d="M15.9768 6H18.0087V7H15.9768V6Z" fill="white" />
  <path d="M15.9768 25H18.0087V26H15.9768V25Z" fill="white" />
  <path
    d="M21.1927 6.83972L22.9524 7.83972L22.4444 8.70575L20.6847 7.70575L21.1927 6.83972Z"
    fill="white"
  />
  <path
    d="M11.5413 23.2943L13.3009 24.2943L12.793 25.1603L11.0333 24.1603L11.5413 23.2943Z"
    fill="white"
  />
  <path
    d="M11.0333 7.83972L12.793 6.83972L13.3009 7.70575L11.5413 8.70575L11.0333 7.83972Z"
    fill="white"
  />
  <path
    d="M20.6847 24.2943L22.4444 23.2943L22.9524 24.1603L21.1927 25.1603L20.6847 24.2943Z"
    fill="white"
  />
  <path
    d="M7.6866 11.866L8.70254 10.134L9.58238 10.634L8.56643 12.366L7.6866 11.866Z"
    fill="white"
  />
  <path d="M6.8335 17L6.8335 15H7.84944L7.84944 17H6.8335Z" fill="white" />
  <path
    d="M8.70254 21.866L7.6866 20.134L8.56643 19.634L9.58238 21.366L8.70254 21.866Z"
    fill="white"
  />
</svg>
