<svg viewBox="0 0 16 16" xmlns="http://www.w3.org/2000/svg">
    <path d="m12.261 4.5872c-0.6857-0.67498-1.5594-1.1346-2.5106-1.3209-0.95116-0.18622-1.937-0.09064-2.833 0.27465-0.89597 0.3653-1.6618 0.98391-2.2006 1.7776-0.53878 0.7937-0.82636 1.7268-0.82636 2.6814s0.28758 1.8877 0.82636 2.6814c0.53879 0.7937 1.3046 1.4123 2.2006 1.7776s1.8819 0.4609 2.833 0.2747c0.95116-0.1863 1.8249-0.6459 2.5106-1.3209l-1.3869-1.3651c-0.4114 0.405-0.93561 0.6808-1.5063 0.7925s-1.1622 0.0544-1.6998-0.1648-0.99706-0.5903-1.3203-1.0666c-0.32327-0.47622-0.49582-1.0361-0.49582-1.6088s0.17255-1.1326 0.49582-1.6088 0.78275-0.84739 1.3203-1.0666c0.53758-0.21918 1.1291-0.27653 1.6998-0.16479 0.57069 0.11173 1.0949 0.38753 1.5063 0.79252l1.3869-1.3651z" fill="currentColor"/>
    <path d="m14 2.8757c-1.0297-1.0135-2.3415-1.7037-3.7697-1.9833-1.4281-0.27962-2.9084-0.13611-4.2537 0.41238-1.3453 0.5485-2.4951 1.4773-3.3041 2.6691-0.80898 1.1917-1.2408 2.5928-1.2408 4.0261s0.4318 2.8344 1.2408 4.0261c0.80899 1.1918 1.9588 2.1206 3.3041 2.6691 1.3453 0.5485 2.8256 0.692 4.2537 0.4124 1.4282-0.2796 2.74-0.9698 3.7697-1.9833l-1.0412-1.0249c-0.8237 0.8108-1.8732 1.363-3.0157 1.5867-1.1425 0.2237-2.3268 0.1089-3.403-0.3299-1.0762-0.4388-1.9961-1.1819-2.6433-2.1353-0.64719-0.9534-0.99263-2.0743-0.99263-3.2209s0.34544-2.2675 0.99263-3.2209c0.64718-0.95339 1.5671-1.6965 2.6433-2.1353 1.0762-0.4388 2.2605-0.5536 3.403-0.32991 1.1425 0.2237 2.192 0.77585 3.0157 1.5866l1.0412-1.0248z" fill="currentColor"/>
    <path d="M7.98142 0H9.60693V0.8H7.98142V0Z" fill="currentColor"/>
    <path d="m7.9814 15.2h1.6255v0.8h-1.6255v-0.8z" fill="currentColor"/>
    <path d="m12.154 0.67178 1.4077 0.8-0.4063 0.69282-1.4078-0.8 0.4064-0.69282z" fill="currentColor"/>
    <path d="m4.433 13.835 1.4077 0.8-0.40638 0.6928-1.4077-0.8 0.40637-0.6928z" fill="currentColor"/>
    <path d="m4.0266 1.4718 1.4077-0.8 0.40638 0.69282-1.4077 0.8-0.40637-0.69282z" fill="currentColor"/>
    <path d="m11.748 14.635 1.4078-0.8 0.4063 0.6928-1.4077 0.8-0.4064-0.6928z" fill="currentColor"/>
    <path d="m1.3492 4.6928 0.81276-1.3856 0.70386 0.4-0.81275 1.3856-0.70387-0.4z" fill="currentColor"/>
    <path d="m0.66675 8.8v-1.6h0.81275v1.6h-0.81275z" fill="currentColor"/>
    <path d="m2.162 12.693-0.81276-1.3856 0.70387-0.4 0.81275 1.3856-0.70386 0.4z" fill="currentColor"/>
</svg>
