<svg width="62" height="54" viewBox="0 0 62 54" fill="none" xmlns="http://www.w3.org/2000/svg">
<path d="M15.4081 52.9027L0.983839 27.6249C0.709092 27.2082 0.709092 26.6527 0.983839 26.236L15.4081 1.02768C15.6828 0.611009 16.0949 0.333231 16.5758 0.333231H45.4242C45.905 0.333231 46.3859 0.611009 46.5919 1.02768L61.0162 26.3055C61.2909 26.7221 61.2909 27.2777 61.0162 27.6943L46.5919 52.9721C46.3172 53.3888 45.905 53.6666 45.4242 53.6666H16.5758C16.0949 53.5971 15.6141 53.3888 15.4081 52.9027Z" fill="#E8E8E8"/>
<path d="M18.9111 48.1111L6.89091 27L18.9111 5.88885H43.0889L55.1091 27L43.0889 48.1111H18.9111Z" fill="black"/>
<path d="M37.7313 22.3472C37.7313 23.1806 37.5939 23.9445 37.3192 24.6389C37.0444 25.3333 36.6323 26.0278 36.1515 26.5833C35.6707 27.1389 35.0525 27.625 34.3657 27.9722C33.6788 28.3195 32.9232 28.5972 32.1677 28.6667L32.0303 31.5834H28.8707L28.7333 25.5417H30.4505C30.8626 25.5417 31.3434 25.4722 31.6869 25.3333C32.099 25.1945 32.4424 24.9861 32.7172 24.7083C32.9919 24.4306 33.198 24.1528 33.404 23.7361C33.6101 23.3889 33.6788 22.9722 33.6788 22.5556C33.6788 21.6528 33.3354 20.8889 32.7172 20.2639C32.099 19.7083 31.3434 19.3611 30.3818 19.3611C29.5576 19.3611 28.802 19.5695 28.1838 19.9167C27.5657 20.2639 26.9475 20.75 26.5354 21.375L23.5818 19.2222C24.4061 18.1806 25.3677 17.3472 26.4667 16.6528C27.5657 16.0278 28.9394 15.6806 30.5192 15.6806C31.5495 15.6806 32.5111 15.8195 33.3354 16.1667C34.2283 16.5139 34.9838 17 35.602 17.5556C36.2202 18.1111 36.7697 18.8056 37.1131 19.6389C37.5252 20.5417 37.7313 21.4445 37.7313 22.3472ZM30.4505 33.5278C31.0687 33.5278 31.6182 33.7361 32.0303 34.1528C32.4424 34.5695 32.6485 35.125 32.6485 35.75C32.6485 36.375 32.4424 36.9306 32.0303 37.3472C31.6182 37.7639 31.0687 37.9722 30.4505 37.9722C29.8323 37.9722 29.2828 37.7639 28.8707 37.3472C28.4586 36.9306 28.1838 36.375 28.1838 35.75C28.1838 35.125 28.3899 34.5695 28.8707 34.1528C29.2828 33.7361 29.8323 33.5278 30.4505 33.5278Z" fill="white"/>
</svg>
